<?xml version="1.0" standalone="no"?>
<!DOCTYPE svg PUBLIC "-//W3C//DTD SVG 1.1//EN" "http://www.w3.org/Graphics/SVG/1.1/DTD/svg11.dtd" >
<svg xmlns="http://www.w3.org/2000/svg">
<metadata></metadata>
<defs>
<font id="digital-7mono" horiz-adv-x="930" >
<font-face units-per-em="2048" ascent="1638" descent="-410" />
<missing-glyph horiz-adv-x="500" />
<glyph horiz-adv-x="2048" />
<glyph horiz-adv-x="2048" />
<glyph unicode="&#xd;" />
<glyph unicode=" " />
<glyph unicode="!" d="M391 0v149h149v-149h-149zM391 298v242l112 112l37 -38v-316h-149zM391 801v391l56 149q74 -19 93 -94v-521l-37 -37z" />
<glyph unicode="&#x22;" d="M261 1043v298h149v-298l-75 -75zM560 1044v298h149v-298l-74 -74z" />
<glyph unicode="#" d="M56 521l74 75h75l74 -75l-74 -74h-75zM56 817l74 75h75l74 -75l-74 -74h-75zM242 296v114l75 74l74 -74v-114l-74 -74zM242 633v74l75 75l74 -75v-74l-74 -74zM242 931v112l75 74l74 -74v-112l-74 -75zM354 521l74 75h75l74 -75l-74 -74h-75zM354 819l74 75h75l74 -75 l-74 -74h-75zM540 298v113l74 75l75 -75v-113l-75 -75zM540 633v74l74 75l75 -75v-74l-75 -74zM540 931v112l74 74l75 -74v-112l-75 -75zM652 519l74 75h75l74 -75l-74 -74h-75zM652 819l74 75h75l74 -75l-74 -74h-75z" />
<glyph unicode="$" d="M74 93l149 56h447l56 -149h-558q-74 19 -94 93zM74 726v484l149 -56v-353l-111 -112zM76 1247q19 74 93 94h594q74 -19 93 -94l-149 -55h-482zM149 670l74 75h484l75 -75l-75 -74h-484zM410 -56h149v-93l-75 -74l-74 74v93zM410 205v335h149v-335h-149zM410 801v335h149 v-335h-149zM410 1396v93l74 75l75 -75v-93h-149zM707 149v391l112 112l37 -38v-521q-19 -74 -93 -93z" />
<glyph unicode="%" d="M0 987v223l149 -56v-111l-56 -149q-74 19 -93 93zM0 1247q19 74 93 94h224l-56 -149h-112zM74 74l287 578h84v-201l-222 -451q-112 0 -149 74zM130 894l56 149h112l149 -56q-19 -74 -93 -93h-224zM298 1080v112l56 149q74 -19 93 -94v-223zM484 93v224l149 -56v-112 l-56 -149q-74 19 -93 93zM484 354q19 74 93 93h224l-56 -149h-112zM486 689v201l221 451q112 0 149 -75l-286 -577h-84zM614 0l56 149h112l149 -56q-19 -74 -93 -93h-224zM782 186v112l56 149q74 -19 93 -93v-224z" />
<glyph unicode="&#x26;" d="M74 93l149 56h596l112 -112l-37 -37h-726q-74 19 -94 93zM74 130v484l38 38l111 -112v-354zM149 670l74 75h484l75 -75l-75 -74h-484zM149 801v335l149 -56v-205l-112 -112zM149 1173q19 74 93 93h410l-56 -149h-298zM633 875v242l56 149q74 -19 93 -93v-372l-37 -38z M707 -37h149v-93l-37 -38l-112 112v19zM707 242v298l112 112l37 -38v-428h-93z" />
<glyph unicode="'" d="M410 1043v298h149v-298l-75 -75z" />
<glyph unicode="(" d="M74 186v428l38 38l111 -112v-391l-55 -56zM74 726v428l94 93l55 -55v-391l-111 -112zM186 74l75 75h204l75 -75l-75 -74h-204zM186 1266l75 75h204l75 -75l-75 -74h-204z" />
<glyph unicode=")" d="M354 74l74 75h205l74 -75l-74 -74h-205zM354 1266l74 75h205l74 -75l-74 -74h-205zM670 149v391l112 112l37 -38v-428l-93 -93zM670 801v391l56 55l93 -93v-428l-37 -37z" />
<glyph unicode="*" d="M158 493l28 103l129 74l-129 75l-28 102l103 28l130 -74v149l74 74l75 -74v-149l130 74l103 -28l-28 -102l-129 -75l129 -74l28 -103l-103 -28l-130 75v-149l-75 -74l-74 74v149l-130 -75z" />
<glyph unicode="+" d="M149 670l74 75h168v167l74 75l75 -75v-167h167l75 -75l-75 -74h-167v-168l-75 -74l-74 74v168h-168z" />
<glyph unicode="," d="M391 -149v298h149v-298l-75 -74z" />
<glyph unicode="-" d="M149 670l74 75h484l75 -75l-75 -74h-484z" />
<glyph unicode="." d="M391 0v149h149v-149h-149z" />
<glyph unicode="/" d="M74 74l287 578h84v-201l-222 -451q-112 0 -149 74zM486 689v201l221 451q112 0 149 -75l-286 -577h-84z" />
<glyph unicode="0" d="M74 93l149 56h447l56 -149h-558q-74 19 -94 93zM74 130v484l38 38l111 -112v-354zM74 726v484l149 -56v-353l-111 -112zM76 1247q19 74 93 94h557l-56 -149h-445zM707 149v391l112 112l37 -38v-521q-19 -74 -93 -93zM707 801v391l56 149q74 -19 93 -94v-521l-37 -37z" />
<glyph unicode="1" d="M707 149v391l112 112l37 -38v-521q-19 -74 -93 -93zM707 801v391l56 149q74 -19 93 -94v-521l-37 -37z" />
<glyph unicode="2" d="M74 93l149 56h503l56 -149h-614q-74 19 -94 93zM74 130v484l38 38l111 -112v-354zM76 1247q19 74 93 94h557l-56 -149h-445zM149 670l74 75h484l75 -75l-75 -74h-484zM707 801v391l56 149q74 -19 93 -94v-521l-37 -37z" />
<glyph unicode="3" d="M74 93l149 56h447l56 -149h-558q-74 19 -94 93zM76 1247q19 74 93 94h557l-56 -149h-445zM149 670l74 75h484l75 -75l-75 -74h-484zM707 149v391l112 112l37 -38v-521q-19 -74 -93 -93zM707 801v391l56 149q74 -19 93 -94v-521l-37 -37z" />
<glyph unicode="4" d="M74 726v540l149 -56v-409l-111 -112zM149 670l74 75h484l75 -75l-75 -74h-484zM707 149v391l112 112l37 -38v-521q-19 -74 -93 -93zM707 801v391l56 149q74 -19 93 -94v-521l-37 -37z" />
<glyph unicode="5" d="M74 93l149 56h447l56 -149h-558q-74 19 -94 93zM74 726v484l149 -56v-353l-111 -112zM76 1247q19 74 93 94h613l-56 -149h-501zM149 670l74 75h484l75 -75l-75 -74h-484zM707 149v391l112 112l37 -38v-521q-19 -74 -93 -93z" />
<glyph unicode="6" d="M74 93l149 56h447l56 -149h-558q-74 19 -94 93zM74 130v484l38 38l111 -112v-354zM74 726v484l149 -56v-353l-111 -112zM76 1247q19 74 93 94h613l-56 -149h-501zM149 670l74 75h484l75 -75l-75 -74h-484zM707 149v391l112 112l37 -38v-521q-19 -74 -93 -93z" />
<glyph unicode="7" d="M74 726v484l149 -56v-353l-111 -112zM76 1247q19 74 93 94h557l-56 -149h-445zM707 149v391l112 112l37 -38v-521q-19 -74 -93 -93zM707 801v391l56 149q74 -19 93 -94v-521l-37 -37z" />
<glyph unicode="8" d="M74 93l149 56h447l56 -149h-558q-74 19 -94 93zM74 130v484l38 38l111 -112v-354zM74 726v484l149 -56v-353l-111 -112zM76 1247q19 74 93 94h557l-56 -149h-445zM149 670l74 75h484l75 -75l-75 -74h-484zM707 149v391l112 112l37 -38v-521q-19 -74 -93 -93zM707 801v391 l56 149q74 -19 93 -94v-521l-37 -37z" />
<glyph unicode="9" d="M74 93l149 56h447l56 -149h-558q-74 19 -94 93zM74 726v484l149 -56v-353l-111 -112zM76 1247q19 74 93 94h557l-56 -149h-445zM149 670l74 75h484l75 -75l-75 -74h-484zM707 149v391l112 112l37 -38v-521q-19 -74 -93 -93zM707 801v391l56 149q74 -19 93 -94v-521 l-37 -37z" />
<glyph unicode=":" d="M391 0v149h149v-149h-149zM391 894v149h149v-149h-149z" />
<glyph unicode=";" d="M391 -149v298h149v-298l-75 -74zM391 894v149h149v-149h-149z" />
<glyph unicode="&#x3c;" d="M186 652h205l298 -300l-56 -73h-74zM186 689l373 372h74l56 -72l-298 -300h-205z" />
<glyph unicode="=" d="M149 519l74 75h484l75 -75l-75 -74h-484zM149 819l74 75h484l75 -75l-75 -74h-484z" />
<glyph unicode="&#x3e;" d="M186 352l298 300h205l-372 -373h-75zM186 989l56 72h75l372 -372h-205z" />
<glyph unicode="?" d="M74 0v149h149v-149h-149zM74 298v316l38 38l111 -112v-242h-149zM76 1247q19 74 93 94h557l-56 -149h-445zM149 670l74 75h484l75 -75l-75 -74h-484zM707 801v391l56 149q74 -19 93 -94v-521l-37 -37z" />
<glyph unicode="@" d="M74 93l149 56h447l56 -149h-558q-74 19 -94 93zM74 130v484l38 38l111 -112v-354zM74 726v484l149 -56v-353l-111 -112zM76 1247q19 74 93 94h557l-56 -149h-445zM372 389l149 58h149l56 -149l-261 -2q-74 19 -93 93zM372 428v186l38 38l111 -112v-56zM372 726v186 l149 -56v-55l-111 -112zM372 951q19 74 93 93l205 -1v-149h-149zM707 447v93l112 112l37 -38v-223q-19 -74 -93 -93zM707 801v391l56 149q74 -19 93 -94v-521l-37 -37z" />
<glyph unicode="A" d="M74 93v521l38 38l111 -112v-391l-55 -149q-74 19 -94 93zM74 726v484l149 -56v-353l-111 -112zM76 1247q19 74 93 94h557l-56 -149h-445zM149 670l74 75h484l75 -75l-75 -74h-484zM707 149v391l112 112l37 -38v-521q-19 -74 -93 -93zM707 801v391l56 149q74 -19 93 -94 v-521l-37 -37z" />
<glyph unicode="B" d="M74 0v93l149 56h445l75 -75l-75 -74h-594zM74 130v484l38 38l111 -112v-354zM74 726v484l149 -56v-353l-111 -112zM74 1247v94h596l75 -75l-75 -74h-447zM149 670l74 75h484l75 -75l-75 -74h-484zM707 149v391l112 112l37 -38v-428l-93 -93zM707 801v391l56 55l93 -93 v-428l-37 -37z" />
<glyph unicode="C" d="M74 93l149 56h503l56 -149h-614q-74 19 -94 93zM74 130v484l38 38l111 -112v-354zM74 726v484l149 -56v-353l-111 -112zM76 1247q19 74 93 94h613l-56 -149h-501z" />
<glyph unicode="D" d="M74 0v93l149 56h445l75 -75l-75 -74h-594zM74 130v484l38 38l111 -112v-354zM74 726v484l149 -56v-353l-111 -112zM74 1247v94h596l75 -75l-75 -74h-447zM707 149v391l112 112l37 -38v-428l-93 -93zM707 801v391l56 55l93 -93v-428l-37 -37z" />
<glyph unicode="E" d="M74 93l149 56h503l56 -149h-614q-74 19 -94 93zM74 130v484l38 38l111 -112v-354zM74 726v484l149 -56v-353l-111 -112zM76 1247q19 74 93 94h613l-56 -149h-501zM149 670l74 75h484l75 -75l-75 -74h-484z" />
<glyph unicode="F" d="M74 93v521l38 38l111 -112v-391l-55 -149q-74 19 -94 93zM74 726v484l149 -56v-353l-111 -112zM76 1247q19 74 93 94h613l-56 -149h-501zM149 670l74 75h484l75 -75l-75 -74h-484z" />
<glyph unicode="G" d="M74 93l149 56h447l56 -149h-558q-74 19 -94 93zM74 130v484l38 38l111 -112v-354zM74 726v484l149 -56v-353l-111 -112zM76 1247q19 74 93 94h613l-56 -149h-501zM465 670l75 75h167l75 -75l-75 -74h-167zM707 149v391l112 112l37 -38v-521q-19 -74 -93 -93z" />
<glyph unicode="H" d="M74 93v521l38 38l111 -112v-391l-55 -149q-74 19 -94 93zM74 707v522q19 74 94 93l55 -149v-391l-111 -112zM149 670l74 75h484l75 -75l-75 -74h-484zM707 149v391l112 112l37 -38v-521q-19 -74 -93 -93zM707 801v391l56 149q74 -19 93 -94v-521l-37 -37z" />
<glyph unicode="I" d="M372 168v391l112 111l37 -37v-521q-19 -74 -93 -93zM372 801v391l56 149q74 -19 93 -94v-521l-37 -37z" />
<glyph unicode="J" d="M74 93l149 56h447l56 -149h-558q-74 19 -94 93zM74 130v484l38 38l111 -112v-354zM707 149v391l112 112l37 -38v-521q-19 -74 -93 -93zM707 801v391l56 149q74 -19 93 -94v-521l-37 -37z" />
<glyph unicode="K" d="M74 93v521l38 38l111 -112v-391l-55 -149q-74 19 -94 93zM74 726v521q19 74 94 94l55 -149v-391l-111 -112zM149 670l74 75h484l75 -75l-75 -74h-484zM261 782v112l446 447q112 0 149 -75l-484 -484h-111zM707 149v391l112 112l37 -38v-521q-19 -74 -93 -93z" />
<glyph unicode="L" d="M74 93v521l38 38l111 -112v-391l-55 -149q-74 19 -94 93zM74 726v521q19 74 94 94l55 -149v-391l-111 -112zM205 0l56 149h446l149 -56q-19 -74 -93 -93h-558z" />
<glyph unicode="M" d="M74 93v521l38 38l111 -112v-391l-55 -149q-74 19 -94 93zM74 726v484l149 -56v-353l-111 -112zM76 1247q19 74 93 94h557l-56 -149h-445zM391 726v428h149v-428l-75 -74zM707 149v391l112 112l37 -38v-521q-19 -74 -93 -93zM707 801v391l56 149q74 -19 93 -94v-521 l-37 -37z" />
<glyph unicode="N" d="M74 93v521l38 38l111 -112v-391l-55 -149q-74 19 -94 93zM74 707v522q19 74 94 93l55 -149v-391l-111 -112zM261 1061v112h111l298 -298v-93h-130zM707 149v391l112 112l37 -38v-521q-19 -74 -93 -93zM707 782v391l56 149q74 -19 93 -93v-522l-37 -37z" />
<glyph unicode="O" d="M74 186v428l38 38l111 -112v-391l-55 -56zM74 726v428l94 93l55 -55v-391l-111 -112zM186 74l75 75h409l75 -75l-75 -74h-409zM186 1266l75 75h409l75 -75l-75 -74h-409zM707 149v391l112 112l37 -38v-428l-93 -93zM707 801v391l56 55l93 -93v-428l-37 -37z" />
<glyph unicode="P" d="M74 93v521l38 38l111 -112v-391l-55 -149q-74 19 -94 93zM74 726v484l149 -56v-353l-111 -112zM74 1247v94h596l75 -75l-75 -74h-447zM149 670l74 75h484l75 -75l-75 -74h-484zM707 801v391l56 55l93 -93v-428l-37 -37z" />
<glyph unicode="Q" d="M74 93l149 56h317l149 -149h-521q-74 19 -94 93zM74 130v484l38 38l111 -112v-354zM74 726v484l149 -56v-353l-111 -112zM76 1247q19 74 93 94h557l-56 -149h-445zM521 223v112h112l242 -242v-112h-112zM707 317v223l112 112l37 -38v-446zM707 801v391l56 149 q74 -19 93 -94v-521l-37 -37z" />
<glyph unicode="R" d="M74 93v521l38 38l111 -112v-391l-55 -149q-74 19 -94 93zM74 726v484l149 -56v-353l-111 -112zM76 1247q19 74 93 94h557l-56 -149h-445zM149 670l74 75h484l75 -75l-75 -74h-484zM261 447v112h111l484 -485q-37 -74 -149 -74zM707 801v391l56 149q74 -19 93 -94v-521 l-37 -37z" />
<glyph unicode="S" d="M74 93l149 56h447l56 -149h-558q-74 19 -94 93zM74 726v484l149 -56v-353l-111 -112zM76 1247q19 74 93 94h594q74 -19 93 -94l-149 -55h-482zM149 670l74 75h484l75 -75l-75 -74h-484zM707 149v391l112 112l37 -38v-521q-19 -74 -93 -93z" />
<glyph unicode="T" d="M76 1247q19 74 93 94h594q74 -19 93 -94l-149 -55h-482zM391 149v428l74 75l75 -75v-484q-19 -74 -93 -93zM391 763v391h149v-391l-75 -74z" />
<glyph unicode="U" d="M74 93l149 56h447l56 -149h-558q-74 19 -94 93zM74 130v484l38 38l111 -112v-354zM74 707v522q19 74 94 93l55 -149v-391l-111 -112zM707 149v391l112 112l37 -38v-521q-19 -74 -93 -93zM707 801v391l56 149q74 -19 93 -94v-521l-37 -37z" />
<glyph unicode="V" d="M74 484v112l38 37l111 -112l224 -298v-223zM74 707v522q19 74 94 93l55 -149v-391l-111 -112zM484 0v223l223 298l112 112l37 -37v-112zM707 782v391l56 149q74 -19 93 -93v-522l-37 -37z" />
<glyph unicode="W" d="M74 130v484l38 38l111 -112v-354zM74 726v521q19 74 94 94l55 -149v-391l-111 -112zM76 93l149 56h445l56 -149h-557q-74 19 -93 93zM391 186v428l74 75l75 -75v-428h-149zM707 149v391l112 112l37 -38v-521q-19 -74 -93 -93zM707 801v391l56 149q74 -19 93 -94v-521 l-37 -37z" />
<glyph unicode="X" d="M74 74l287 578h84v-201l-222 -451q-112 0 -149 74zM76 1266q37 74 149 75l222 -453v-199h-84zM484 451v201h84l287 -578q-37 -74 -149 -74zM486 689v201l221 451q112 0 149 -75l-286 -577h-84z" />
<glyph unicode="Y" d="M74 93l149 56h447l56 -149h-558q-74 19 -94 93zM74 726v540l149 -56v-409l-111 -112zM149 670l74 75h484l75 -75l-75 -74h-484zM707 149v391l112 112l37 -38v-521q-19 -74 -93 -93zM707 801v391l56 149q74 -19 93 -94v-521l-37 -37z" />
<glyph unicode="Z" d="M74 74l298 578h112v-112l-261 -540q-112 0 -149 74zM76 1247q19 74 93 94h501l-74 -149h-371zM261 0l74 149h391l56 -149h-521zM465 689v112l242 540q112 0 149 -75l-279 -577h-112z" />
<glyph unicode="[" d="M74 130v484l38 38l111 -112v-354zM74 726v484l149 -56v-353l-111 -112zM76 93l149 56h129l111 -112l-37 -37h-259q-74 19 -93 93zM76 1247q19 74 93 94h259l37 -38l-111 -111h-129z" />
<glyph unicode="\" d="M76 1266q37 74 149 75l222 -453v-199h-84zM484 451v201h84l287 -578q-37 -74 -149 -74z" />
<glyph unicode="]" d="M465 37l112 112h93l56 -149h-223zM465 1303l38 38h223l-56 -149h-93zM707 149v391l112 112l37 -38v-521q-19 -74 -93 -93zM707 801v391l56 149q74 -19 93 -94v-521l-37 -37z" />
<glyph unicode="^" d="M74 894v74l373 373l-2 -205l-298 -298zM482 1136v205l373 -373v-74l-73 -56z" />
<glyph unicode="_" d="M74 93l149 56h483l149 -56q-19 -74 -94 -93h-593q-74 19 -94 93z" />
<glyph unicode="`" d="M298 1303l19 75h74l242 -242v-75l-74 -18z" />
<glyph unicode="a" d="M74 93v521l38 38l111 -112v-391l-55 -149q-74 19 -94 93zM74 726v484l149 -56v-353l-111 -112zM76 1247q19 74 93 94h557l-56 -149h-445zM149 670l74 75h484l75 -75l-75 -74h-484zM707 149v391l112 112l37 -38v-521q-19 -74 -93 -93zM707 801v391l56 149q74 -19 93 -94 v-521l-37 -37z" />
<glyph unicode="b" d="M74 0v93l149 56h445l75 -75l-75 -74h-594zM74 130v484l38 38l111 -112v-354zM74 726v484l149 -56v-353l-111 -112zM74 1247v94h596l75 -75l-75 -74h-447zM149 670l74 75h484l75 -75l-75 -74h-484zM707 149v391l112 112l37 -38v-428l-93 -93zM707 801v391l56 55l93 -93 v-428l-37 -37z" />
<glyph unicode="c" d="M74 93l149 56h503l56 -149h-614q-74 19 -94 93zM74 130v484l38 38l111 -112v-354zM74 726v484l149 -56v-353l-111 -112zM76 1247q19 74 93 94h613l-56 -149h-501z" />
<glyph unicode="d" d="M74 0v93l149 56h445l75 -75l-75 -74h-594zM74 130v484l38 38l111 -112v-354zM74 726v484l149 -56v-353l-111 -112zM74 1247v94h596l75 -75l-75 -74h-447zM707 149v391l112 112l37 -38v-428l-93 -93zM707 801v391l56 55l93 -93v-428l-37 -37z" />
<glyph unicode="e" d="M74 93l149 56h503l56 -149h-614q-74 19 -94 93zM74 130v484l38 38l111 -112v-354zM74 726v484l149 -56v-353l-111 -112zM76 1247q19 74 93 94h613l-56 -149h-501zM149 670l74 75h484l75 -75l-75 -74h-484z" />
<glyph unicode="f" d="M74 93v521l38 38l111 -112v-391l-55 -149q-74 19 -94 93zM74 726v484l149 -56v-353l-111 -112zM76 1247q19 74 93 94h613l-56 -149h-501zM149 670l74 75h484l75 -75l-75 -74h-484z" />
<glyph unicode="g" d="M74 93l149 56h447l56 -149h-558q-74 19 -94 93zM74 130v484l38 38l111 -112v-354zM74 726v484l149 -56v-353l-111 -112zM76 1247q19 74 93 94h613l-56 -149h-501zM465 670l75 75h167l75 -75l-75 -74h-167zM707 149v391l112 112l37 -38v-521q-19 -74 -93 -93z" />
<glyph unicode="h" d="M74 93v521l38 38l111 -112v-391l-55 -149q-74 19 -94 93zM74 707v522q19 74 94 93l55 -149v-391l-111 -112zM149 670l74 75h484l75 -75l-75 -74h-484zM707 149v391l112 112l37 -38v-521q-19 -74 -93 -93zM707 801v391l56 149q74 -19 93 -94v-521l-37 -37z" />
<glyph unicode="i" d="M372 168v391l112 111l37 -37v-521q-19 -74 -93 -93zM372 801v391l56 149q74 -19 93 -94v-521l-37 -37z" />
<glyph unicode="j" d="M74 93l149 56h447l56 -149h-558q-74 19 -94 93zM74 130v484l38 38l111 -112v-354zM707 149v391l112 112l37 -38v-521q-19 -74 -93 -93zM707 801v391l56 149q74 -19 93 -94v-521l-37 -37z" />
<glyph unicode="k" d="M74 93v521l38 38l111 -112v-391l-55 -149q-74 19 -94 93zM74 726v521q19 74 94 94l55 -149v-391l-111 -112zM149 670l74 75h484l75 -75l-75 -74h-484zM261 782v112l446 447q112 0 149 -75l-484 -484h-111zM707 149v391l112 112l37 -38v-521q-19 -74 -93 -93z" />
<glyph unicode="l" d="M74 93v521l38 38l111 -112v-391l-55 -149q-74 19 -94 93zM74 726v521q19 74 94 94l55 -149v-391l-111 -112zM205 0l56 149h446l149 -56q-19 -74 -93 -93h-558z" />
<glyph unicode="m" d="M74 93v521l38 38l111 -112v-391l-55 -149q-74 19 -94 93zM74 726v484l149 -56v-353l-111 -112zM76 1247q19 74 93 94h557l-56 -149h-445zM391 726v428h149v-428l-75 -74zM707 149v391l112 112l37 -38v-521q-19 -74 -93 -93zM707 801v391l56 149q74 -19 93 -94v-521 l-37 -37z" />
<glyph unicode="n" d="M74 93v521l38 38l111 -112v-391l-55 -149q-74 19 -94 93zM74 707v522q19 74 94 93l55 -149v-391l-111 -112zM261 1061v112h111l298 -298v-93h-130zM707 149v391l112 112l37 -38v-521q-19 -74 -93 -93zM707 782v391l56 149q74 -19 93 -93v-522l-37 -37z" />
<glyph unicode="o" d="M74 186v428l38 38l111 -112v-391l-55 -56zM74 726v428l94 93l55 -55v-391l-111 -112zM186 74l75 75h409l75 -75l-75 -74h-409zM186 1266l75 75h409l75 -75l-75 -74h-409zM707 149v391l112 112l37 -38v-428l-93 -93zM707 801v391l56 55l93 -93v-428l-37 -37z" />
<glyph unicode="p" d="M74 93v521l38 38l111 -112v-391l-55 -149q-74 19 -94 93zM74 726v484l149 -56v-353l-111 -112zM74 1247v94h596l75 -75l-75 -74h-447zM149 670l74 75h484l75 -75l-75 -74h-484zM707 801v391l56 55l93 -93v-428l-37 -37z" />
<glyph unicode="q" d="M74 93l149 56h317l149 -149h-521q-74 19 -94 93zM74 130v484l38 38l111 -112v-354zM74 726v484l149 -56v-353l-111 -112zM76 1247q19 74 93 94h557l-56 -149h-445zM521 223v112h112l242 -242v-112h-112zM707 317v223l112 112l37 -38v-446zM707 801v391l56 149 q74 -19 93 -94v-521l-37 -37z" />
<glyph unicode="r" d="M74 93v521l38 38l111 -112v-391l-55 -149q-74 19 -94 93zM74 726v484l149 -56v-353l-111 -112zM76 1247q19 74 93 94h557l-56 -149h-445zM149 670l74 75h484l75 -75l-75 -74h-484zM261 447v112h111l484 -485q-37 -74 -149 -74zM707 801v391l56 149q74 -19 93 -94v-521 l-37 -37z" />
<glyph unicode="s" d="M74 93l149 56h447l56 -149h-558q-74 19 -94 93zM74 726v484l149 -56v-353l-111 -112zM76 1247q19 74 93 94h594q74 -19 93 -94l-149 -55h-482zM149 670l74 75h484l75 -75l-75 -74h-484zM707 149v391l112 112l37 -38v-521q-19 -74 -93 -93z" />
<glyph unicode="t" d="M76 1247q19 74 93 94h594q74 -19 93 -94l-149 -55h-482zM391 149v428l74 75l75 -75v-484q-19 -74 -93 -93zM391 763v391h149v-391l-75 -74z" />
<glyph unicode="u" d="M74 93l149 56h447l56 -149h-558q-74 19 -94 93zM74 130v484l38 38l111 -112v-354zM74 707v522q19 74 94 93l55 -149v-391l-111 -112zM707 149v391l112 112l37 -38v-521q-19 -74 -93 -93zM707 801v391l56 149q74 -19 93 -94v-521l-37 -37z" />
<glyph unicode="v" d="M74 484v112l38 37l111 -112l224 -298v-223zM74 707v522q19 74 94 93l55 -149v-391l-111 -112zM484 0v223l223 298l112 112l37 -37v-112zM707 782v391l56 149q74 -19 93 -93v-522l-37 -37z" />
<glyph unicode="w" d="M74 130v484l38 38l111 -112v-354zM74 726v521q19 74 94 94l55 -149v-391l-111 -112zM76 93l149 56h445l56 -149h-557q-74 19 -93 93zM391 186v428l74 75l75 -75v-428h-149zM707 149v391l112 112l37 -38v-521q-19 -74 -93 -93zM707 801v391l56 149q74 -19 93 -94v-521 l-37 -37z" />
<glyph unicode="x" d="M74 74l287 578h84v-201l-222 -451q-112 0 -149 74zM76 1266q37 74 149 75l222 -453v-199h-84zM484 451v201h84l287 -578q-37 -74 -149 -74zM486 689v201l221 451q112 0 149 -75l-286 -577h-84z" />
<glyph unicode="y" d="M74 93l149 56h447l56 -149h-558q-74 19 -94 93zM74 726v540l149 -56v-409l-111 -112zM149 670l74 75h484l75 -75l-75 -74h-484zM707 149v391l112 112l37 -38v-521q-19 -74 -93 -93zM707 801v391l56 149q74 -19 93 -94v-521l-37 -37z" />
<glyph unicode="z" d="M74 74l298 578h112v-112l-261 -540q-112 0 -149 74zM76 1247q19 74 93 94h501l-74 -149h-371zM261 0l74 149h391l56 -149h-521zM465 689v112l242 540q112 0 149 -75l-279 -577h-112z" />
<glyph unicode="{" d="M56 670l74 75h131l74 -75l-74 -74h-131zM279 130v410l112 112l37 -38v-428zM279 801v409l149 -56v-428l-37 -37zM281 93l149 56h129l111 -112l-37 -37h-259q-74 19 -93 93zM281 1247q19 74 93 94h259l37 -38l-111 -111h-129z" />
<glyph unicode="|" d="M74 149v1043l56 149q74 -19 93 -94v-1154q-19 -74 -93 -93z" />
<glyph unicode="}" d="M149 37l112 112h128l149 -56q-19 -74 -93 -93h-259zM149 1303l37 38h259q74 -19 93 -94l-149 -55h-128zM391 186v428l37 38l112 -112v-410zM391 726v428l149 56v-409l-112 -112zM484 670l75 75h130l74 -75l-74 -74h-130z" />
<glyph unicode="~" d="M56 817l74 75h75l74 -75l-74 -74h-75zM205 931l74 74h75l74 -74l-74 -75h-75zM354 819l74 75h75l74 -75l-74 -74h-75zM503 689l74 74h75l74 -74l-74 -75h-75zM652 819l74 75h75l74 -75l-74 -74h-75z" />
<glyph unicode="&#xa0;" />
<glyph unicode="&#xa9;" d="M0 93l149 56h558l56 -149h-670q-74 19 -93 93zM0 130v1080l149 -56v-968zM2 1247q19 74 93 94h668l-56 -149h-556zM223 391v521l149 -56v-409l-55 -149q-74 19 -94 93zM223 950q19 74 94 93h353l-56 -149h-242zM354 298l56 149h111l149 -56q-19 -74 -93 -93h-223z M745 149v1043l56 149q74 -19 93 -94v-1154q-19 -74 -93 -93z" />
<glyph unicode="&#xad;" d="M149 670l74 75h484l75 -75l-75 -74h-484z" />
<glyph unicode="&#x2000;" horiz-adv-x="782" />
<glyph unicode="&#x2001;" horiz-adv-x="1564" />
<glyph unicode="&#x2002;" horiz-adv-x="782" />
<glyph unicode="&#x2003;" horiz-adv-x="1564" />
<glyph unicode="&#x2004;" horiz-adv-x="521" />
<glyph unicode="&#x2005;" horiz-adv-x="391" />
<glyph unicode="&#x2006;" horiz-adv-x="260" />
<glyph unicode="&#x2007;" horiz-adv-x="260" />
<glyph unicode="&#x2008;" horiz-adv-x="195" />
<glyph unicode="&#x2009;" horiz-adv-x="312" />
<glyph unicode="&#x200a;" horiz-adv-x="86" />
<glyph unicode="&#x2010;" d="M149 670l74 75h484l75 -75l-75 -74h-484z" />
<glyph unicode="&#x2011;" d="M149 670l74 75h484l75 -75l-75 -74h-484z" />
<glyph unicode="&#x2012;" d="M149 670l74 75h484l75 -75l-75 -74h-484z" />
<glyph unicode="&#x2013;" d="M56 670l74 75h671l74 -75l-74 -74h-671z" />
<glyph unicode="&#x2014;" d="M19 670l74 75h745l74 -75l-74 -74h-745z" />
<glyph unicode="&#x2018;" d="M410 968v298l74 75l75 -75v-298h-149z" />
<glyph unicode="&#x2019;" d="M410 1043v298h149v-298l-75 -75z" />
<glyph unicode="&#x201c;" d="M261 970v298l74 74l75 -74v-298h-149zM559 968v298l74 75l74 -75v-298h-148z" />
<glyph unicode="&#x201d;" d="M261 1043v298h149v-298l-75 -75zM560 1044v298h149v-298l-74 -74z" />
<glyph unicode="&#x2022;" d="M186 680q0 112 79 191t191 79t191 -79.5t79 -190.5q0 -112 -79 -191t-191 -79t-191 79t-79 191z" />
<glyph unicode="&#x202f;" horiz-adv-x="312" />
<glyph unicode="&#x205f;" horiz-adv-x="391" />
<glyph unicode="&#xe000;" horiz-adv-x="1340" d="M0 0v1341h1341v-1341h-1341z" />
</font>
</defs>
</svg>
